<svg fill="#d1dbe1" height="200px" width="200px" version="1.1" id="Layer_1" xmlns="http://www.w3.org/2000/svg" xmlns:xlink="http://www.w3.org/1999/xlink" viewBox="0 0 512.00 512.00" xml:space="preserve" stroke="#d1dbe1" stroke-width="8.704034"><g id="SVGRepo_bgCarrier" stroke-width="0"></g><g id="SVGRepo_tracerCarrier" stroke-linecap="round" stroke-linejoin="round"></g><g id="SVGRepo_iconCarrier"> <g> <g> <g> <path d="M469.334,119.467h-85.333c-14.114,0-25.6-11.486-25.6-25.6V51.2c0-4.71-3.814-8.533-8.533-8.533 c-4.719,0-8.533,3.823-8.533,8.533v42.667c0,23.526,19.14,42.667,42.667,42.667h76.8v312.201l-19.567-19.567 c-3.337-3.336-8.73-3.336-12.066,0l-45.167,45.167l-19.567-19.567c-3.336-3.337-8.73-3.337-12.066,0l-19.567,19.567l-28.1-28.1 c-3.336-3.337-8.73-3.337-12.066,0l-28.1,28.1L253.501,463.3c-3.337-3.337-8.73-3.337-12.066,0l-28.1,28.1l-28.1-28.1 c-3.337-3.337-8.73-3.337-12.066,0l-28.1,28.1l-45.167-45.167c-3.337-3.337-8.73-3.337-12.066,0l-36.634,36.634V42.667 c0-14.114,11.486-25.6,25.6-25.6h269.534L429.168,99.9c3.337,3.337,8.73,3.337,12.066,0c3.336-3.336,3.336-8.73,0-12.066 L355.901,2.5c-1.596-1.604-3.763-2.5-6.033-2.5H76.801C53.275,0,34.134,19.14,34.134,42.667v460.8 c0,3.447,2.074,6.562,5.265,7.885c1.058,0.435,2.167,0.648,3.268,0.648c2.219,0,4.403-0.87,6.033-2.5l45.167-45.167 l45.167,45.167c3.337,3.337,8.73,3.337,12.066,0l28.1-28.1l28.1,28.1c3.337,3.337,8.73,3.337,12.066,0l28.1-28.1l11.034,11.034 c3.337,3.336,8.73,3.336,12.066,0l28.1-28.1l28.1,28.1c3.337,3.336,8.73,3.336,12.066,0l19.567-19.567l19.567,19.567 c3.337,3.336,8.73,3.336,12.066,0l45.167-45.167l28.1,28.1c2.449,2.449,6.11,3.183,9.301,1.852 c3.191-1.323,5.265-4.437,5.265-7.885V128C477.868,123.29,474.053,119.467,469.334,119.467z"></path> <path d="M128.001,221.867h153.6c4.719,0,8.533-3.823,8.533-8.533c0-4.71-3.814-8.533-8.533-8.533h-153.6 c-4.719,0-8.533,3.823-8.533,8.533C119.468,218.044,123.282,221.867,128.001,221.867z"></path> <path d="M128.001,153.6h85.333c4.719,0,8.533-3.823,8.533-8.533c0-4.71-3.814-8.533-8.533-8.533h-85.333 c-4.719,0-8.533,3.823-8.533,8.533C119.468,149.777,123.282,153.6,128.001,153.6z"></path> <path d="M298.668,273.067h51.2c4.719,0,8.533-3.823,8.533-8.533c0-4.71-3.814-8.533-8.533-8.533h-51.2 c-4.719,0-8.533,3.823-8.533,8.533C290.134,269.244,293.949,273.067,298.668,273.067z"></path> <path d="M204.801,315.733c0-4.71-3.814-8.533-8.533-8.533h-68.267c-4.719,0-8.533,3.823-8.533,8.533s3.814,8.533,8.533,8.533 h68.267C200.987,324.267,204.801,320.444,204.801,315.733z"></path> <path d="M128.001,358.4c-4.719,0-8.533,3.823-8.533,8.533s3.814,8.533,8.533,8.533h51.2c4.719,0,8.533-3.823,8.533-8.533 s-3.814-8.533-8.533-8.533H128.001z"></path> <path d="M213.334,375.467h85.333c4.719,0,8.533-3.823,8.533-8.533s-3.814-8.533-8.533-8.533h-85.333 c-4.719,0-8.533,3.823-8.533,8.533S208.615,375.467,213.334,375.467z"></path> <path d="M384.001,204.8h-68.267c-4.719,0-8.533,3.823-8.533,8.533c0,4.71,3.814,8.533,8.533,8.533h68.267 c4.719,0,8.533-3.823,8.533-8.533C392.534,208.623,388.72,204.8,384.001,204.8z"></path> <path d="M332.801,375.467h51.2c4.719,0,8.533-3.823,8.533-8.533s-3.814-8.533-8.533-8.533h-51.2 c-4.719,0-8.533,3.823-8.533,8.533S328.082,375.467,332.801,375.467z"></path> <path d="M375.468,315.733c0-4.71-3.814-8.533-8.533-8.533H230.401c-4.719,0-8.533,3.823-8.533,8.533s3.814,8.533,8.533,8.533 h136.533C371.653,324.267,375.468,320.444,375.468,315.733z"></path> <path d="M230.401,256c-4.719,0-8.533,3.823-8.533,8.533c0,4.71,3.814,8.533,8.533,8.533h34.133c4.719,0,8.533-3.823,8.533-8.533 c0-4.71-3.814-8.533-8.533-8.533H230.401z"></path> <path d="M128.001,273.067h68.267c4.719,0,8.533-3.823,8.533-8.533c0-4.71-3.814-8.533-8.533-8.533h-68.267 c-4.719,0-8.533,3.823-8.533,8.533C119.468,269.244,123.282,273.067,128.001,273.067z"></path> </g> </g> </g> </g> </svg> 